<?xml version="1.0" standalone="no"?><!DOCTYPE svg PUBLIC "-//W3C//DTD SVG 1.1//EN" "http://www.w3.org/Graphics/SVG/1.1/DTD/svg11.dtd"><svg t="1675498496594" class="icon" viewBox="0 0 1024 1024" version="1.1" xmlns="http://www.w3.org/2000/svg" p-id="2474" xmlns:xlink="http://www.w3.org/1999/xlink" width="200" height="200"><path d="M618.666667 576h-64a21.333333 21.333333 0 0 0 0 42.666667h64a21.333333 21.333333 0 0 0 0-42.666667z" fill="#f4ea2a" p-id="2475"></path><path d="M874.666667 490.666667h-74.453334L661.333333 299.946667A106.666667 106.666667 0 0 0 576 256v-21.333333a64 64 0 0 0-128 0v21.333333h-94.293333A106.666667 106.666667 0 0 0 256 318.506667L178.346667 490.666667H149.333333a106.666667 106.666667 0 0 0-106.666666 106.666666v64a106.666667 106.666667 0 0 0 106.666666 106.666667h4.48a117.12 117.12 0 0 0 225.493334 0h243.84a117.12 117.12 0 0 0 225.493333 0H874.666667a106.666667 106.666667 0 0 0 106.666666-106.666667v-64a106.666667 106.666667 0 0 0-106.666666-106.666666z m-247.68-165.546667L746.666667 490.666667H533.333333v-192h42.666667a64 64 0 0 1 50.986667 26.453333zM490.666667 234.666667a21.333333 21.333333 0 0 1 42.666666 0v21.333333h-42.666666v-21.333333z m-195.413334 101.546666A64 64 0 0 1 353.706667 298.666667H490.666667v192H225.066667zM266.666667 810.666667a74.666667 74.666667 0 1 1 74.666666-74.666667 74.666667 74.666667 0 0 1-74.666666 74.666667z m469.333333 0a74.666667 74.666667 0 1 1 74.666667-74.666667 74.666667 74.666667 0 0 1-74.666667 74.666667z m202.666667-149.333334a64 64 0 0 1-64 64h-21.333334a117.333333 117.333333 0 0 0-234.666666 0H384a117.333333 117.333333 0 0 0-234.666667 0 64 64 0 0 1-64-64v-64a64 64 0 0 1 64-64h725.333334a64 64 0 0 1 64 64v64z" fill="#f4ea2a" p-id="2476"></path></svg>